<svg width="71" height="41" viewBox="0 0 71 41" fill="none" xmlns="http://www.w3.org/2000/svg">
<path fill-rule="evenodd" clip-rule="evenodd" d="M51.8105 0.347388C43.1656 1.55278 37.9332 7.2065 39.1878 13.9859C40.1677 19.2826 43.6712 21.8413 53.2343 24.2443C59.2462 25.7553 61.5388 26.9852 62.0353 28.9647C62.5038 30.8345 60.1502 32.984 56.9818 33.5801C53.9612 34.1481 47.777 33.02 44.203 31.249L41.2829 29.8016L39.7861 33.0769C38.9623 34.8784 38.2886 36.4067 38.2886 36.4732C38.2886 37.0453 44.4196 39.4238 47.6741 40.1145C53.0459 41.254 56.87 41.2205 61.2343 39.9941C71.9946 36.9704 74.5725 24.4402 65.3814 19.8379C63.8068 19.0495 60.499 17.9238 58.0312 17.3367C51.7465 15.8413 49.3433 14.7959 48.4806 13.1819C45.8877 8.32981 54.8359 5.59731 63.1349 8.70725C64.98 9.39801 66.5827 9.8701 66.697 9.75567C66.8112 9.64065 67.4514 8.15847 68.119 6.46181L69.3335 3.37645L66.4624 2.1393C63.9049 1.03755 62.1215 0.64694 56.8347 0.0298656C56.0121 -0.0659906 53.7512 0.0765947 51.8105 0.347388ZM0 21.1865V41H9.7612C20.7046 41 25.2567 40.3632 29.42 38.2507C37.3446 34.229 41.329 25.3832 38.8408 17.3355C38.2294 15.3585 37.5791 12.9926 37.3954 12.0784C36.8737 9.48009 33.1532 5.85073 28.8176 3.71194L24.8595 1.75887L12.4294 1.56596L0 1.37245V21.1865ZM24.4652 10.1493C25.5822 10.8065 27.2992 12.3402 28.2815 13.5576C29.7754 15.4082 30.117 16.4548 30.3665 19.9494C30.7416 25.2017 29.286 28.6429 25.6085 31.1975C23.2879 32.8097 22.7183 32.9241 16.0573 33.1122L8.97389 33.3117V20.9157V8.51913L15.7043 8.7366C21.0827 8.90974 22.8427 9.19372 24.4652 10.1493Z" fill="black"/>
</svg>
