<svg width="53" height="53" viewBox="0 0 53 53" fill="none" xmlns="http://www.w3.org/2000/svg">
<path d="M26.5 0C11.8644 0 0 11.8644 0 26.5C0 41.1356 11.8644 53 26.5 53C41.1356 53 53 41.1356 53 26.5C53 11.8644 41.1356 0 26.5 0ZM12.9395 16.2487H40.0605V20.0627L26.5 27.7939L12.9395 20.0626V16.2487ZM12.9395 22.5017L19.8459 26.4386L12.9395 33.6781V22.5017ZM40.0605 22.5017V33.6782L33.1541 26.4385L40.0605 22.5017ZM21.7448 27.5222L26.5 30.233L31.2552 27.5222L40.0605 36.7513H12.9395L21.7448 27.5222Z" fill="#152028"/>
</svg>
